# xmcd CD database file
#
# Track frame offsets:
#	150
#	20158
#	40273
#	57451
#	72771
#	97668
#	124876
#	152371
#	176928
#	206246
#
# Disc length: 3090 seconds
#
# Revision: 0
# Processed by: cddbd v1.5.2PL0 Copyright (c) Steve Scherf et al.
# Submitted via: CDex 1.51
#
DISCID=8a0c100a
DTITLE=Max Ionata Quartet featuring Fabrizio Bosso - Inspiration
DYEAR=2009
DGENRE=Jazz
TTITLE0=Two Friends
TTITLE1=Satosong
TTITLE2=Shiny Stockings
TTITLE3=Funkone
TTITLE4=Hey, Rookie!
TTITLE5=Ginza Line
TTITLE6=Mi Diverto
TTITLE7=Love For Sale
TTITLE8=Fragile
TTITLE9=The End of a Love Affair
EXTD=YEAR: 2009
EXTT0=
EXTT1=
EXTT2=
EXTT3=
EXTT4=
EXTT5=
EXTT6=
EXTT7=
EXTT8=
EXTT9=
PLAYORDER=
